<?xml version="1.0" standalone="no"?>
<!DOCTYPE svg PUBLIC "-//W3C//DTD SVG 20010904//EN"
 "http://www.w3.org/TR/2001/REC-SVG-20010904/DTD/svg10.dtd">
<svg version="1.0" xmlns="http://www.w3.org/2000/svg"
 width="700.000000pt" height="700.000000pt" viewBox="0 0 700.000000 700.000000"
 preserveAspectRatio="xMidYMid meet">
<metadata>
Created by potrace 1.14, written by Peter Selinger 2001-2017
</metadata>
<g transform="translate(0.000000,700.000000) scale(0.100000,-0.100000)"
fill="#000000" stroke="none">
<path d="M3403 6554 c-3 -9 -12 -13 -21 -9 -9 3 -13 3 -9 -1 9 -9 -42 -36 -54
-28 -5 3 -8 1 -7 -4 4 -11 -74 -88 -85 -84 -5 1 -6 -2 -3 -7 8 -12 -33 -83
-43 -76 -4 2 -7 -6 -6 -18 1 -12 -5 -30 -14 -41 -9 -10 -15 -21 -14 -25 5 -11
-9 -45 -24 -63 -8 -9 -37 -22 -64 -28 -27 -7 -52 -16 -55 -21 -3 -5 -14 -9
-25 -9 -10 0 -19 -4 -19 -10 0 -5 -6 -10 -14 -10 -8 0 -29 -13 -47 -30 -18
-16 -37 -26 -42 -23 -6 3 -7 1 -3 -5 3 -6 1 -17 -6 -24 -20 -22 -35 -51 -42
-84 -4 -17 -13 -31 -21 -31 -8 0 -15 3 -15 6 0 7 -24 9 -142 13 -42 2 -74 0
-72 -3 3 -6 -17 -14 -56 -24 -57 -14 -157 -119 -199 -210 -54 -115 -57 -119
-98 -131 -21 -6 -68 -26 -103 -45 -36 -18 -69 -32 -73 -31 -5 1 -6 -2 -3 -6 7
-11 -28 -44 -37 -37 -4 3 -5 2 -2 -2 3 -3 -6 -20 -19 -37 -13 -17 -27 -42 -31
-56 -4 -14 -11 -30 -16 -35 -12 -16 -7 -187 7 -214 14 -26 0 -61 -24 -61 -7 0
-11 -4 -8 -9 3 -5 -4 -20 -17 -33 -12 -14 -23 -31 -25 -37 -3 -15 -39 -98 -57
-131 -8 -16 -30 -30 -57 -39 -87 -29 -144 -60 -189 -103 -25 -25 -49 -53 -52
-62 -4 -10 -12 -14 -18 -10 -7 4 -9 3 -6 -3 3 -5 -3 -34 -14 -63 -19 -51 -33
-197 -18 -202 3 -2 9 -15 12 -30 6 -21 -1 -36 -32 -76 -48 -60 -80 -122 -97
-186 -12 -47 -14 -212 -2 -231 5 -9 18 -89 23 -145 2 -14 6 -33 10 -42 4 -10
5 -25 1 -33 -3 -8 -2 -15 3 -15 4 0 8 -6 8 -12 1 -13 11 -89 20 -143 2 -16 5
-44 7 -60 1 -17 4 -35 7 -40 6 -11 11 -52 13 -97 1 -16 4 -28 7 -28 3 0 6 -18
7 -41 1 -22 4 -45 7 -50 3 -4 8 -25 11 -46 2 -21 7 -49 9 -63 3 -14 8 -44 11
-66 2 -23 7 -53 10 -65 2 -13 7 -40 10 -59 2 -19 7 -46 9 -60 3 -14 7 -47 11
-75 3 -27 8 -52 9 -55 2 -3 6 -26 9 -50 8 -55 17 -119 21 -141 4 -18 41 -249
48 -294 3 -16 10 -59 15 -95 6 -36 13 -83 17 -105 7 -48 12 -82 25 -155 6 -30
13 -75 16 -100 3 -25 8 -56 10 -70 6 -33 35 -208 39 -240 2 -14 8 -52 14 -85
6 -33 13 -80 16 -105 3 -25 8 -54 10 -66 3 -12 7 -39 10 -60 4 -21 13 -78 21
-126 8 -48 17 -106 20 -130 13 -97 34 -189 50 -219 30 -60 108 -125 175 -148
58 -19 82 -20 585 -21 416 0 524 2 524 12 0 8 3 9 8 3 5 -7 318 -10 947 -10
l940 0 57 28 c101 49 167 149 182 272 3 28 10 73 15 100 5 28 12 75 16 105 4
30 10 73 15 95 5 22 12 65 15 95 4 30 8 57 10 60 2 3 6 30 9 60 4 30 10 69 13
85 3 17 7 39 9 50 2 17 15 101 29 185 2 14 9 57 15 95 6 39 13 81 15 95 2 14
7 43 10 65 13 86 46 291 50 315 3 14 7 41 10 60 3 19 7 44 9 55 3 19 12 73 22
140 3 17 9 55 14 85 5 30 12 73 15 95 3 22 8 51 10 65 3 14 7 39 9 55 34 217
117 741 136 860 6 33 12 76 15 95 3 19 8 42 10 50 2 8 7 40 10 70 4 30 11 73
15 95 5 22 8 78 6 125 -3 78 -9 99 -49 187 -17 38 -95 120 -145 153 l-47 31
-2 77 c-2 85 -18 142 -60 207 -42 64 -145 135 -214 149 -13 2 -32 8 -43 12
-20 8 -58 83 -49 98 3 5 1 6 -5 2 -7 -4 -12 -1 -12 9 0 9 -7 27 -16 40 -9 13
-12 30 -8 36 4 8 3 9 -4 5 -7 -4 -12 -3 -12 2 0 4 -20 30 -45 58 -36 39 -44
54 -39 74 14 59 20 160 10 170 -5 5 -7 10 -4 10 12 0 -23 102 -47 139 -49 77
-146 142 -233 157 -33 6 -59 36 -82 95 -13 35 -23 67 -22 72 1 4 -3 7 -9 7 -5
0 -15 13 -20 29 -6 16 -17 32 -25 35 -9 3 -12 10 -9 16 3 5 -1 10 -9 10 -21 0
-31 21 -15 32 11 8 10 9 -4 4 -9 -3 -33 5 -53 19 -20 14 -41 25 -46 25 -5 0
-7 4 -4 8 6 10 -10 12 -133 15 -85 3 -105 6 -113 20 -5 9 -6 17 -2 17 3 0 1 7
-6 15 -7 8 -9 15 -4 15 4 0 0 6 -11 13 -10 8 -15 19 -12 24 4 6 -1 10 -11 9
-9 0 -16 5 -15 11 2 7 -3 12 -10 10 -6 -1 -11 4 -9 11 1 8 -2 11 -8 7 -6 -3
-24 1 -42 9 -17 9 -37 16 -45 16 -7 0 -13 4 -13 10 0 5 -7 6 -17 3 -11 -4 -14
-3 -9 5 5 8 2 10 -9 6 -23 -9 -71 14 -82 39 -27 57 -46 109 -46 122 0 8 -4 15
-9 15 -5 0 -7 4 -4 9 3 5 -1 12 -10 15 -9 4 -14 13 -10 21 3 10 -1 15 -11 15
-9 0 -14 3 -10 6 13 13 -113 118 -153 126 -8 2 -21 10 -28 18 -9 10 -11 10 -6
1 5 -10 0 -12 -27 -5 -44 10 -116 10 -153 -1 -21 -6 -27 -5 -22 4 4 6 5 11 1
11 -3 0 -8 -7 -12 -16z m-388 -2594 c3 -5 1 -10 -4 -10 -6 0 -11 5 -11 10 0 6
2 10 4 10 3 0 8 -4 11 -10z"/>
</g>
</svg>
